<svg width="526" height="31" viewBox="0 0 526 31" fill="none" xmlns="http://www.w3.org/2000/svg">
<path fill-rule="evenodd" clip-rule="evenodd" d="M223.029 2.88158C198.358 3.86907 173.977 5.08328 150.201 6.41073C116.544 8.28858 82.9002 10.2312 49.459 13.307C38.9324 14.2783 28.2426 14.8934 17.7819 16.1076C11.2152 16.8684 2.50809 17.9529 1.36538 18.1795C0.767699 18.309 0.506951 18.5035 0.422697 18.5682C-0.16972 19.0215 -0.0616254 19.4584 0.272761 19.7984C0.407042 19.944 0.746598 20.3003 1.6892 20.3489C64.7275 23.6675 129.188 17.1922 192.302 16.5123C301.755 15.3467 414.524 19.9766 523.107 30.0781C524.055 30.1591 524.977 29.7542 525.108 29.1553C525.266 28.5725 524.582 28.0059 523.634 27.9249C414.867 17.8072 301.912 13.1611 192.25 14.3429C133.429 14.9742 73.4479 20.6565 14.5459 18.7139C15.8993 18.552 17.2264 18.39 18.4375 18.2443C28.8561 17.0302 39.5012 16.4313 49.9856 15.46C83.3558 12.3842 116.931 10.4416 150.544 8.57992C192.25 6.24879 235.773 4.24142 279.638 3.30249C295.33 3.44819 310.97 3.59395 326.61 3.77202C360.443 4.16054 394.435 5.29373 428.189 6.81544C438.353 7.2849 448.516 7.77051 458.679 8.19141C462.049 8.33711 470.738 8.75793 471.949 8.72556C473.45 8.69318 473.739 7.91621 473.766 7.7867C473.845 7.49531 473.792 7.09058 473.055 6.75062C472.976 6.70206 472.502 6.54007 471.449 6.44294C410.074 0.712257 344.54 -0.242707 279.69 1.1333C211.286 0.534335 142.618 0.275202 74.3879 0C73.4111 0 72.6133 0.485722 72.6054 1.08469C72.6001 1.68366 73.3873 2.1694 74.3641 2.18559C123.769 2.37985 173.424 2.574 223.029 2.88158Z" fill="url(#paint0_linear_401_1234)"/>
<defs>
<linearGradient id="paint0_linear_401_1234" x1="1.84127" y1="10.2393" x2="497.424" y2="187.587" gradientUnits="userSpaceOnUse">
<stop stop-color="#9803CC"/>
<stop offset="1" stop-color="#001AFF"/>
</linearGradient>
</defs>
</svg>
